<mxfile host="app.diagrams.net" modified="2024-05-21T17:15:04.441Z" agent="Mozilla/5.0 (Windows NT 10.0; Win64; x64; rv:126.0) Gecko/20100101 Firefox/126.0" version="24.3.0" etag="TL3aVJ7XOaj35bfhXCPb" type="github">
  <diagram name="Strona-1" id="7p9Igom2x31BAThdsgpb">
    <mxGraphModel>
      <root>
        <mxCell id="0" />
        <mxCell id="1" parent="0" />
      </root>
    </mxGraphModel>
  </diagram>
</mxfile>
